Coordinates
version=1
nRows=19
nColumns=63
inDegrees=yes

Units are S.I. units (second, meters, Newtons, ...)
If the header above contains a line with 'inDegrees', this indicates whether rotational values are in degrees (yes) or radians (no).

endheader
time	pelvis_tilt	pelvis_list	pelvis_rotation	pelvis_tx	pelvis_ty	pelvis_tz	hip_flexion_r	hip_adduction_r	hip_rotation_r	knee_angle_r	knee_angle_r_beta	ankle_angle_r	subtalar_angle_r	mtp_angle_r	hip_flexion_l	hip_adduction_l	hip_rotation_l	knee_angle_l	knee_angle_l_beta	ankle_angle_l	subtalar_angle_l	mtp_angle_l	L5_S1_Flex_Ext	L5_S1_Lat_Bending	L5_S1_axial_rotation	L4_L5_Flex_Ext	L4_L5_Lat_Bending	L4_L5_axial_rotation	L3_L4_Flex_Ext	L3_L4_Lat_Bending	L3_L4_axial_rotation	L2_L3_Flex_Ext	L2_L3_Lat_Bending	L2_L3_axial_rotation	L1_L2_Flex_Ext	L1_L2_Lat_Bending	L1_L2_axial_rotation	L1_T12_Flex_Ext	L1_T12_Lat_Bending	L1_T12_axial_rotation	Abs_r3	Abs_r2	Abs_r1	Abs_t1	Abs_t2	neck_flexion	neck_bending	neck_rotation	arm_flex_r	arm_add_r	arm_rot_r	elbow_flex_r	pro_sup_r	wrist_flex_r	wrist_dev_r	arm_flex_l	arm_add_l	arm_rot_l	elbow_flex_l	pro_sup_l	wrist_flex_l	wrist_dev_l
3.140351	-3.903072	-2.819777	88.021746	0.219067	0.824428	0.648247	1.091720	-4.150715	-10.073934	8.260734	0.144177	21.501004	15.399213	0.000000	0.199235	1.968434	11.129587	2.369700	0.041359	11.435273	-14.007855	0.000000	0.286016	-0.268849	-1.154145	0.531160	-0.357569	-1.226279	0.469895	-0.653678	-1.226279	0.326887	-0.653678	-1.009877	0.265594	-0.548236	-0.937743	0.163429	-0.416446	-0.865609	2.042982	-3.041269	-6.419006	0.000000	0.000000	28.464190	5.976516	-4.987986	9.876684	-7.702993	140.792704	3.451246	3.343190	-3.865991	-8.671548	7.892236	-16.236292	146.442310	1.760933	1.608919	-10.078649	-14.571273
3.157895	-3.444747	-2.913980	87.790893	0.219377	0.825179	0.648023	1.186726	-3.643339	-9.804031	8.198244	0.143086	21.166899	15.041198	0.000000	0.172941	1.465747	10.924322	2.301131	0.040162	11.091019	-14.210687	0.000000	0.289099	-0.196995	-1.145542	0.536885	-0.262003	-1.217138	0.474960	-0.478973	-1.217138	0.330411	-0.478973	-1.002349	0.268457	-0.401712	-0.930753	0.165191	-0.305145	-0.859156	2.065002	-2.228446	-6.371159	0.000000	0.000000	28.462868	6.375118	-5.107735	10.189022	-7.676649	144.640440	2.834482	3.523775	-4.529613	-8.908830	8.436995	-16.109646	145.267528	1.289328	1.235919	-8.725705	-14.588479
3.175439	-3.031456	-3.013864	87.548617	0.219678	0.825898	0.647838	1.303115	-3.181412	-9.457033	8.136223	0.142004	20.933671	14.610895	0.000000	0.186857	1.015755	10.698647	2.309498	0.040308	10.842233	-14.414144	0.000000	0.285965	-0.128060	-1.141091	0.531065	-0.170320	-1.212409	0.469811	-0.311366	-1.212409	0.326829	-0.311366	-0.998455	0.265547	-0.261141	-0.927137	0.163400	-0.198366	-0.855818	2.042616	-1.448645	-6.346407	0.000000	0.000000	28.459251	6.844545	-5.173457	10.481659	-7.651218	148.201670	2.241830	3.639738	-5.234724	-9.213192	8.969409	-16.030586	142.789538	1.110524	0.928710	-7.238079	-14.526427
3.192982	-2.661343	-3.111287	87.284220	0.219963	0.826523	0.647721	1.438440	-2.767410	-9.059249	8.079283	0.141010	20.819090	14.185081	0.000000	0.235703	0.615029	10.433371	2.394095	0.041785	10.746668	-14.547769	0.000000	0.275684	-0.061971	-1.136262	0.511972	-0.082422	-1.207279	0.452921	-0.150677	-1.207279	0.315079	-0.150677	-0.994230	0.256000	-0.126372	-0.923213	0.157526	-0.095994	-0.852197	1.969181	-0.701032	-6.319550	0.000000	0.000000	28.452839	7.302032	-5.273399	10.751024	-7.646322	151.202471	1.735229	3.712013	-5.943422	-9.566406	9.519908	-15.989040	139.357159	1.234686	0.880116	-5.730077	-14.256765
3.210526	-2.355442	-3.212761	87.033201	0.220150	0.826992	0.647708	1.599958	-2.426428	-8.655141	8.046500	0.140438	20.819523	13.774203	0.000000	0.343335	0.290098	10.170854	2.577868	0.044992	10.800398	-14.631042	0.000000	0.260423	-0.000924	-1.138025	0.483632	-0.001229	-1.209152	0.427849	-0.002247	-1.209152	0.297638	-0.002247	-0.995772	0.241829	-0.001885	-0.924646	0.148806	-0.001432	-0.853519	1.860177	-0.010455	-6.329355	0.000000	0.000000	28.443319	7.667995	-5.460269	10.990004	-7.654969	153.514029	1.322638	3.753703	-6.551274	-9.853271	10.086866	-15.985570	135.172222	1.683972	1.187928	-4.349982	-13.873877
3.228070	-2.106119	-3.311541	86.780899	0.220210	0.827259	0.647815	1.790713	-2.147461	-8.178568	8.058895	0.140654	20.921240	13.310341	0.000000	0.496672	0.043696	10.029146	2.840573	0.049577	10.978497	-14.820995	0.000000	0.240471	0.056711	-1.141694	0.446578	0.075426	-1.213050	0.395069	0.137888	-1.213050	0.274834	0.137888	-0.998983	0.223301	0.115645	-0.927627	0.137405	0.087846	-0.856271	1.717658	0.641528	-6.349762	0.000000	0.000000	28.431244	7.906800	-5.713368	11.202851	-7.689831	155.261251	1.014564	3.736974	-7.039310	-10.055762	10.716751	-15.941434	131.180743	2.341989	1.611967	-3.196736	-13.387991
3.245614	-1.915748	-3.416732	86.541383	0.220083	0.827269	0.648068	2.022251	-1.947089	-7.753676	8.131561	0.141923	21.123884	12.938183	0.000000	0.721585	-0.127698	9.865661	3.198222	0.055820	11.358077	-14.865691	0.000000	0.218061	0.110155	-1.144764	0.404961	0.146506	-1.216312	0.358252	0.267831	-1.216312	0.249222	0.267831	-1.001669	0.202491	0.224628	-0.930121	0.124600	0.170630	-0.858573	1.557588	1.246095	-6.366835	0.000000	0.000000	28.416643	7.878477	-6.213717	11.385086	-7.753078	156.419661	0.817601	3.681249	-7.385704	-10.164144	11.382984	-15.809229	127.579773	3.128842	2.109247	-2.403410	-12.879404
3.263158	-1.787339	-3.533907	86.331177	0.219743	0.826971	0.648459	2.297561	-1.831863	-7.414912	8.271287	0.144361	21.431362	12.671676	0.000000	1.027915	-0.223043	9.653593	3.647268	0.063657	11.969319	-14.686763	0.000000	0.195148	0.158757	-1.150907	0.362410	0.211147	-1.222839	0.320609	0.386002	-1.222839	0.223035	0.386002	-1.007044	0.181215	0.323737	-0.935112	0.111508	0.245915	-0.863180	1.393924	1.795892	-6.401001	0.000000	0.000000	28.400833	7.610898	-6.899154	11.542641	-7.838059	157.090933	0.726097	3.598290	-7.594294	-10.167560	12.018677	-15.564479	124.631530	3.925974	2.573687	-2.024678	-12.320853
3.280702	-1.728041	-3.677712	86.145901	0.219181	0.826307	0.648999	2.641059	-1.808164	-7.149136	8.496527	0.148292	21.840205	12.483797	0.000000	1.441089	-0.228887	9.439039	4.203180	0.073359	12.789040	-14.379145	0.000000	0.174157	0.201342	-1.154073	0.323427	0.267784	-1.226202	0.286122	0.489542	-1.226202	0.199044	0.489542	-1.009814	0.161722	0.410576	-0.937684	0.099513	0.311878	-0.865555	1.243986	2.277618	-6.418607	0.000000	0.000000	28.385125	7.047419	-7.823872	11.662490	-7.945544	157.319000	0.721936	3.497908	-7.675888	-10.095900	12.603803	-15.217315	122.362106	4.726251	3.005303	-2.096029	-11.668693
3.298246	-1.730892	-3.853150	86.013588	0.218362	0.825260	0.649704	3.054726	-1.875135	-7.018537	8.809342	0.153752	22.358904	12.409558	0.000000	1.980651	-0.159298	9.172531	4.891367	0.085370	13.814312	-13.860191	0.000000	0.156238	0.239036	-1.159491	0.290150	0.317918	-1.231959	0.256684	0.581192	-1.231959	0.178565	0.581192	-1.014554	0.145083	0.487443	-0.942086	0.089274	0.370267	-0.869618	1.115993	2.704025	-6.448739	0.000000	0.000000	28.370922	6.358024	-8.723850	11.754894	-8.081676	157.149394	0.799035	3.387705	-7.648228	-9.981933	13.146958	-14.806348	120.242902	5.656885	3.538186	-2.635690	-10.981189
3.315789	-1.791592	-4.059998	85.937610	0.217302	0.823863	0.650600	3.545699	-2.028911	-7.045820	9.215640	0.160843	22.985843	12.461899	0.000000	2.653231	-0.030189	8.776219	5.732021	0.100043	14.997747	-13.075671	0.000000	0.141331	0.271596	-1.158636	0.262466	0.361223	-1.231051	0.232193	0.660358	-1.231051	0.161527	0.660358	-1.013806	0.131240	0.553838	-0.941392	0.080756	0.420702	-0.868977	1.009512	3.072348	-6.443985	0.000000	0.000000	28.358985	5.541989	-9.600080	11.811352	-8.253504	156.404998	0.958392	3.269897	-7.503482	-9.845720	13.714743	-14.301374	118.280179	6.725857	4.080774	-3.581224	-10.375804
3.333333	-1.856675	-4.309359	85.909254	0.216006	0.822150	0.651647	4.115735	-2.209187	-7.218947	9.683623	0.169011	23.706370	12.651885	0.000000	3.455808	0.099746	8.292195	6.717115	0.117236	16.301365	-12.118190	0.000000	0.131946	0.305995	-1.149054	0.245037	0.406973	-1.220869	0.216774	0.743997	-1.220869	0.150801	0.743997	-1.005422	0.122525	0.623985	-0.933606	0.075394	0.473986	-0.861790	0.942479	3.461478	-6.390691	0.000000	0.000000	28.349860	4.726281	-10.280257	11.831529	-8.493239	155.084789	1.188625	3.159293	-7.265619	-9.837408	14.291669	-13.604648	117.051340	7.729358	4.487470	-4.796593	-9.905770
3.350877	-1.936997	-4.594305	85.914820	0.214567	0.820216	0.652815	4.757298	-2.421214	-7.516943	10.203606	0.178087	24.515932	12.955697	0.000000	4.354994	0.239225	7.766957	7.804195	0.136209	17.595272	-11.133013	0.000000	0.128245	0.340503	-1.139102	0.238163	0.452868	-1.210296	0.210693	0.827898	-1.210296	0.146571	0.827898	-0.996714	0.119088	0.694353	-0.925520	0.073279	0.527438	-0.854326	0.916040	3.851833	-6.335342	0.000000	0.000000	28.343798	4.129131	-10.511505	11.839923	-8.765617	153.441364	1.441241	3.005268	-6.957491	-9.913597	14.802112	-12.714477	116.767572	8.489696	4.736386	-6.091594	-9.590180
3.368421	-2.007760	-4.911647	85.942720	0.213053	0.818169	0.654087	5.452939	-2.634275	-7.930320	10.743794	0.187515	25.366533	13.382462	0.000000	5.326119	0.364137	7.218267	8.961857	0.156414	18.819131	-10.181661	0.000000	0.130594	0.377074	-1.124358	0.242526	0.501508	-1.194631	0.214553	0.916817	-1.194631	0.149256	0.916817	-0.983813	0.121270	0.768929	-0.913541	0.074621	0.584087	-0.843269	0.932821	4.265533	-6.253343	0.000000	0.000000	28.340867	3.776369	-10.282656	11.832337	-9.074654	151.473825	1.703189	2.848460	-6.591742	-10.137872	15.258435	-11.626521	117.883581	8.940838	4.872990	-7.338689	-9.301038
3.385965	-2.083165	-5.249009	86.007304	0.211500	0.816129	0.655440	6.174322	-2.857961	-8.426975	11.283853	0.196940	26.228995	13.873421	0.000000	6.328921	0.492878	6.707445	10.136569	0.176917	19.887595	-9.332643	0.000000	0.138632	0.411665	-1.113638	0.257454	0.547515	-1.183241	0.227759	1.000923	-1.183241	0.158443	1.000923	-0.974434	0.128734	0.839468	-0.904831	0.079214	0.637669	-0.835229	0.990235	4.656839	-6.193722	0.000000	0.000000	28.341157	3.763524	-9.578636	11.827797	-9.384043	149.551212	1.942533	2.670840	-6.276835	-10.433747	15.637956	-10.373948	120.342283	9.094304	4.944847	-8.445021	-9.070107
3.403509	-2.156883	-5.596294	86.105642	0.209973	0.814218	0.656843	6.893124	-3.083231	-8.998180	11.798333	0.205920	27.051578	14.421966	0.000000	7.323514	0.623324	6.271639	11.274890	0.196784	20.756144	-8.620422	0.000000	0.151447	0.442799	-1.110579	0.281253	0.588922	-1.179990	0.248813	1.076621	-1.179990	0.173089	1.076621	-0.971756	0.140634	0.902955	-0.902345	0.086537	0.685895	-0.832934	1.081772	5.009026	-6.176705	0.000000	0.000000	28.344577	4.134402	-8.385475	11.845893	-9.679153	147.828935	2.157423	2.514181	-6.051088	-10.797418	15.940469	-8.999626	123.980890	8.969163	5.070088	-9.281654	-8.921331
3.421053	-2.231241	-5.947970	86.219161	0.208577	0.812537	0.658238	7.589091	-3.299664	-9.588561	12.264160	0.214050	27.784680	14.977772	0.000000	8.276108	0.748114	5.896546	12.325264	0.215116	21.408070	-8.016356	0.000000	0.169648	0.467021	-1.111472	0.315053	0.621138	-1.180939	0.278715	1.135516	-1.180939	0.193891	1.135516	-0.972538	0.157535	0.952350	-0.903071	0.096937	0.723416	-0.833604	1.211779	5.283039	-6.181674	0.000000	0.000000	28.351500	4.774305	-6.894407	11.890099	-9.941789	146.344475	2.362390	2.446642	-5.931203	-11.199622	16.157123	-7.554386	128.723451	8.595356	5.198712	-9.774340	-8.873690
3.438596	-2.311734	-6.299717	86.341228	0.207377	0.811168	0.659571	8.243690	-3.504343	-10.142860	12.661271	0.220981	28.379199	15.480028	0.000000	9.164124	0.868269	5.574298	13.252869	0.231306	21.850265	-7.487388	0.000000	0.193115	0.481565	-1.119324	0.358635	0.640481	-1.189282	0.317269	1.170877	-1.189282	0.220712	1.170877	-0.979409	0.179327	0.982007	-0.909451	0.110346	0.745944	-0.839493	1.379404	5.447559	-6.225345	0.000000	0.000000	28.361968	5.621698	-5.181771	11.973565	-10.155090	145.148995	2.577029	2.464269	-5.906583	-11.599909	16.278992	-6.104917	134.321345	8.031801	5.259422	-9.887471	-8.955990
3.456140	-2.392426	-6.649555	86.455548	0.206447	0.810161	0.660777	8.846257	-3.686540	-10.642394	12.981496	0.226570	28.805533	15.946939	0.000000	9.958365	0.969331	5.314200	14.011117	0.244540	22.085158	-7.020786	0.000000	0.221446	0.485189	-1.129525	0.411248	0.645301	-1.200120	0.363814	1.179688	-1.200120	0.253091	1.179688	-0.988334	0.205635	0.989397	-0.917739	0.126534	0.751557	-0.847144	1.581769	5.488553	-6.282078	0.000000	0.000000	28.375516	6.499409	-3.438815	12.080315	-10.310757	144.124239	2.805492	2.542756	-5.935022	-12.008977	16.302899	-4.701358	140.711014	7.267134	5.188883	-9.550904	-9.221727
